<svg id="Layer_2" data-name="Layer 2" xmlns="http://www.w3.org/2000/svg" viewBox="0 0 192.37 29.23"><title>logoRede</title><g id="Ragazzo_simples_8" data-name="Ragazzo simples 8"><path d="M84.52.46C83.14-.08,79.84-.4,78.28,1S75.9,5.2,75.9,9.18c0,2.07-.2,5.62.76,8.73A4.44,4.44,0,0,0,80,21.23a8.06,8.06,0,0,0,3.72,0,4.48,4.48,0,0,0,3.24-3.14c.82-2.36.87-7.45.82-9.3S87.78,1.73,84.52.46Zm-1,16.3-3.44-.31a.66.66,0,0,1-.57-.68L79.73,5.6A.67.67,0,0,1,80.31,5l3-.21a.65.65,0,0,1,.72.58v.06l.23,10.69a.66.66,0,0,1-.63.68Z" fill="#006d64"/><path d="M37,9.85H33.47c-.64,0-.91.29-.92,1v2.35c0,1.07,1.76.84,1.76.84l.11,4.53a.34.34,0,0,1-.32.34c-.56,0-1.6,0-1.81,0a1.51,1.51,0,0,1-1.58-1.23c-.4-1.7-.85-9.31-.19-10.59,1.28-2.5,5-1.54,6.19-1.46.46,0,.68-.22.68-.74V2.84c0-.49-.19-.86-.6-.95a15.17,15.17,0,0,0-7,.06c-4,1.41-3.52,10.05-3.53,11.71,0,1.82.22,6.45,2.41,8.11,1.94,1.47,5,1.37,8,.44a1.62,1.62,0,0,0,1.09-1.11c.28-.91.1-8.73.1-10.19C37.93,10.14,37.68,9.85,37,9.85Z" fill="#006d64"/><path d="M48.39,1.81c-.72,0-4.18,0-5.18,0-.63,0-.9.36-1,1.06-.27,1.88-2.39,16.77-2.69,18.74-.13.79.2,1.14,1,1.05h3c.07-.61.2-2.23.27-2.77.05-.34.29-.41.55-.42h2.39c.26,0,.42.07.47.39.09.57.3,2.24.4,2.81h3.78c.42,0,.64-.31.64-.78S49.55,4.34,49.31,2.74C49.25,2.13,49,1.84,48.39,1.81ZM47.37,6c0,2.27-.32,7.74-.4,9.42,0,.8,0,1.06-.58,1.06l-1.48.11c-.42,0-.46-.29-.5-1-.12-2.48-.24-7.86-.32-9.34,0-.72.18-1,.8-1h1.86C47.34,5.27,47.37,5.51,47.37,6Z" fill="#006d64"/><path d="M61.91,16.79c-1.1,0-4.23.16-4.57.16.07-.15,3.41-6.69,4.89-9.92a3.37,3.37,0,0,0,.34-1.36,21.33,21.33,0,0,0-.07-3.44.83.83,0,0,0-.87-.45h-7c-.72,0-1,.29-1,1.09a19.11,19.11,0,0,0,0,2.7c.1.43.5.46.84.46,1.14,0,4.18-.22,4.18-.22s-3.53,6.8-5,10a3.72,3.72,0,0,0-.34,1.54v2.73c0,.68.27,1,.87,1H62c.59,0,.85-.31.86-1a14.22,14.22,0,0,0-.06-2.88A.84.84,0,0,0,61.91,16.79Z" fill="#006d64"/><path d="M21.47.3c-.81,0-4.29,0-5.22,0-.61,0-.88.36-1,1.06-.27,1.87-2.39,16.7-2.69,18.7-.11.71.13,1.06.78,1.06h2.5l.5-2.56c.06-.39.25-.52.54-.54l3.33-.13a.68.68,0,0,1,.72.63l.52,2.61h3.05c.41,0,.63-.31.63-.77,0-.23-2.49-17.5-2.73-19.11C22.3.62,22,.34,21.47.3ZM19.73,14.86c-.52,0-1.36-.1-1.9-.11s-.84-.15-.8-.83c.08-1.4.48-6.52.6-8.88,0-.64,0-.83.64-.84l.78,0c.41,0,.65.21.71,1,.15,1.77.68,6.59.79,8.75C20.59,14.6,20.37,14.85,19.73,14.86Z" fill="#006d64"/><path d="M95.32,1.18c-.53,0-2.66-.13-3.21-.14s-.85.27-.84,1c0,1.45,0,10.45,0,12.87,0,.68.24,1,.85,1l1.77.08c.68,0,.95-.22,1-1,.16-1.62.94-10.56,1.15-12.75C96.16,1.49,96,1.22,95.32,1.18Z" fill="#006d64"/><path d="M94.61,17.89c-.48,0-3-.14-3-.13a.63.63,0,0,0-.64.61c-.08,1.18-.15,2.35-.18,3.53,0,.54.18.8.63.84,1,.08,2,.12,3.06.14a.68.68,0,0,0,.69-.68.17.17,0,0,0,0-.07c.06-1.15.12-2.31.15-3.45C95.29,18.17,95.06,17.92,94.61,17.89Z" fill="#006d64"/><path d="M6.4,1.83c-1.77,0-3.54,0-5.31-.05C.2,1.77,0,2,0,3V21.78c0,.6.26.89.78.9.7,0,2.32,0,2.83,0l.08-2.55a.44.44,0,0,1,.4-.45l2.39-.18a.43.43,0,0,1,.46.39v.06L7,22.65c.59,0,2.75.12,3.59.12s.92-.53.65-1.3C11.1,21,9,16.94,9,16.94c1.62-1.36,2.43-2.82,2.62-7.3C11.78,6.09,11.3,1.83,6.4,1.83Zm.39,13.42c0,.89-.31,1.13-1.12,1.22s-1.06.1-1.06.1c-.71,0-1-.36-1-1.15-.09-2.64-.44-7.95-.49-9.23,0-.6.21-.76.83-.79,0,0,2-.24,2.5-.25s.87.2.86.83C7.25,8,6.83,13.44,6.79,15.25Z" fill="#006d64"/><path d="M73.8,18.24c-1.7.07-5.11.41-5.11.41S72.49,9.51,74.15,6a3.67,3.67,0,0,0,.4-1.49A22.81,22.81,0,0,0,74.47.76c-.2-.43-.57-.48-1-.49H65.73c-.81,0-1.09.32-1.09,1.19s.11,2.65.14,2.87c0,.43.55.49.93.5h0l4.43-.34s-3.68,9.2-5.35,12.71a2.91,2.91,0,0,0-.4,1.46v2.95c0,.73.3,1.05,1,1.05h8.5c.66,0,1-.34,1-1.06a15.75,15.75,0,0,0-.07-2.92A.88.88,0,0,0,73.8,18.24Z" fill="#006d64"/></g><path d="M104.5,19.49c0-3.83,3.66-8.87,6.52-8.87a1.64,1.64,0,0,1,1.78,1.71c0,.81-.27.51-1,.71-2.75.87-4.87,5.44-4.87,7.35,0,.51.17.81.54.81,1,0,2.55-2,2.89-3.19a3.08,3.08,0,0,1,.57-3.53c.87-.9,5.87-2.78,7.22-2.78a1.51,1.51,0,0,1,1.64,1.54c0,1.38-1.14,3.33-1.88,4.57-.27.4-.1.3.51-.2,1.41-1.18,4.3-3.43,5.74-3.43a1.9,1.9,0,0,1,1.51,1.68c0,.81-2.35,4.57-1.34,4.57a8.7,8.7,0,0,0,3.22-2.09l.2-.2c.14-.13.88,0,.57.37l-.26.34c-2,2.22-3.53,3.42-5.08,3.42a1.73,1.73,0,0,1-1.81-1.81,6.49,6.49,0,0,1,.91-2.92c.07-.14,0-.2-.07-.17-1.28.44-5.37,4.77-6.21,4.77-.51,0-1.55-.74-1.55-1.34,0-.14,1.08-2.62,2-4.94.74-1.88,1.15-2.92-3.86-.71,1.85,1.25-1.37,7.66-5.07,7.66C105.48,22.81,104.5,21.43,104.5,19.49Z" fill="#ed005b"/><path d="M141.25,10.72c-1.75,3.43-3.63,6.89-3.63,9.24,0,.84.37,1,1,1,1,0,2.68-1.34,4-2.62l.2-.2c.13-.13.87,0,.57.37l-.27.34c-.44.57-3.16,3.89-5.78,3.89a2.34,2.34,0,0,1-2.45-2.62c0-2.45,1.72-5.81,3.26-9a11.06,11.06,0,0,1-1.64.2c-1.15,0-1.42-.5-1.42-1a1.41,1.41,0,0,1,.21-.7c.13-.27.23-.17.6-.13a14.59,14.59,0,0,0,3,.13c.43-.87.8-1.75,1.1-2.52.84-2.18.68-2.69,1-2.69,1.81,0,2.41.68,2.41,1.41a6.94,6.94,0,0,1-1,2.62l-.54,1.11,3-.1c.77,0,.7.37.57.61C143.7,10.35,142.36,10.55,141.25,10.72Z" fill="#ed005b"/><path d="M155.05,18.51l-.27.34c-1.24,1.54-3.46,3.29-4.93,3.29-.91,0-1.68-.64-1.68-2,0-1.51,1.24-3.8.67-4s-2.65,1.91-4.67,6.78a.6.6,0,0,1-.64.47c-.8,0-2.15-.74-1.94-1.51,1.44-5,2.78-9.71,5.6-13.81,1.72-2.51,3.53-3.59,4.91-3.59A1.77,1.77,0,0,1,154,6.46c0,3.12-4,6.48-7.66,8.39a16.67,16.67,0,0,0-1,2.52c0,.1.07,0,.1,0,2.05-2.52,3.43-3.19,4.67-3.19A1.81,1.81,0,0,1,151.93,16c0,1.31-.81,2.83-.81,3.83,0,.3.1.51.34.51.57,0,1.85-1,2.82-2l.2-.2C154.62,18,155.36,18.14,155.05,18.51Zm-7.62-5.87a14.58,14.58,0,0,0,3.66-3.36c1.28-1.58,1.28-2.62.7-2.62s-1.41.94-2.18,2.11A40.71,40.71,0,0,0,147.43,12.64Z" fill="#ed005b"/><path d="M163.55,18.51l-.27.34c-1,1.11-2.75,3.36-5.74,3.36a3.29,3.29,0,0,1-3.59-3.5C154,15.49,157,12,159.62,12c1.38,0,2.32.77,2.32,1.88,0,.94-.67,2.11-2.22,3.26a6.89,6.89,0,0,1-3.26,1.47,1.85,1.85,0,0,0,1.89,2.09,7,7,0,0,0,4.43-2.36l.2-.2C163.11,18,163.85,18.14,163.55,18.51Zm-6.88-1.21c2-.8,3.36-2.41,3.36-3.12,0-.23-.14-.34-.38-.34C158.85,13.84,157.24,15.46,156.67,17.3Z" fill="#ed005b"/><path d="M168.56,27.51c0-2.45,2.92-4.66,6-6.21.43-.91.8-1.91,1.54-3.49-1,1-2.75,2.35-4.16,2.35-1.92,0-2.35-2.49-.71-5.61,1.55-2.92,4.87-5.44,6.79-5.44,1.17,0,1.91.87,2.15,2.35,0,.3-.91.67-1.31.67-.71,0-.57-.54-1-.54-.68,0-2.29,1.41-3.46,3-1.38,1.78-2.22,3.8-1.62,3.8,1,0,2.79-2.82,4.61-4.47a3.42,3.42,0,0,1,2.08-1.21,1.85,1.85,0,0,1,1.61,1.08c.17.27.1.4-.1.57a20.78,20.78,0,0,0-3.9,6.38,10.34,10.34,0,0,0,4.47-2.39l.2-.2c.14-.13.88,0,.57.37l-.27.34a14,14,0,0,1-5.24,3.49c-.6.51-.63.94-1.37,2.42-1.08,2.18-3,4.47-5.14,4.47A1.64,1.64,0,0,1,168.56,27.51Zm5.24-4.26a18.07,18.07,0,0,0-2.09,1.85c-1.64,1.51-1.94,3.39.61.4C173.23,24.42,174,23.25,173.8,23.25Z" fill="#ed005b"/><path d="M192.3,18.51l-.27.34a5,5,0,0,1-4.33,2,5.05,5.05,0,0,1-3.52,1.91c-1.82,0-2.79-1.38-2.79-3.32,0-3.66,3.66-8.43,6.51-8.43a1.64,1.64,0,0,1,1.78,1.71c0,.81-.27.5-1,.7-2.76.88-4.84,5.11-4.84,6.92,0,.51.1.91.47.91.91,0,2.59-2.08,2.92-3.29-.94-2.05.44-4,1.65-4,.6,0,1.17.54,1.17,1.75A8.28,8.28,0,0,1,188.47,20a4.24,4.24,0,0,0,3.06-1.62l.2-.2C191.87,18,192.61,18.14,192.3,18.51Z" fill="#ed005b"/></svg>