<svg id="Layer_1" data-name="Layer 1" xmlns="http://www.w3.org/2000/svg" viewBox="0 0 531.3 143.41"><title>logoHabibs</title><g id="Habib_s_vermelho" data-name="Habib&apos;s vermelho"><path d="M531.3,33.53a19.9,19.9,0,0,0-19.91-19.84H471.7a20.08,20.08,0,0,0-20.06,19.83h-.06V73.07h.06c0,.07,0,.15,0,.2a20.06,20.06,0,0,0,19.78,20.08l0,.06h30v20h-20v-10H451.58v20h.05a20,20,0,0,0,20,20h39.85a20,20,0,0,0,19.81-20h0V83.57h0a20.08,20.08,0,0,0-20.06-20.09c-.51,0-1,.05-1.51.07H481.45v-20h20v10H531.3v-20Z" fill="#fff"/><path d="M428.6,33.61a20.08,20.08,0,0,0-20.07-19.92H348.88V143.41h59.89a20.06,20.06,0,0,0,19.83-20.06h0V93.41h0a15.26,15.26,0,0,0-14.91-14.92h0l0,0a15.3,15.3,0,0,0,14.9-14.91h0V33.61Zm-49.87,10h20v20h-20Zm0,49.85h20v20h-20Z" fill="#fff"/><path d="M49.86,13.69H79.72V143.41H49.86v-50h-20v50H0V13.69H29.86V63.55h20Z" fill="#fff"/><path d="M299,143.41V13.69h29.87V143.41Z" fill="#fff"/><path d="M179.44,33.53a20.18,20.18,0,0,0-20.15-19.84h-39.4A20.17,20.17,0,0,0,99.73,33.53h0V143.41h30v-30h-.15v-20h20v20h-.17v30h30V33.53Zm-29.84,30h-20v-20h20Z" fill="#fff"/><path d="M279.16,33.61A20.05,20.05,0,0,0,259.1,13.69H199.45V143.41h59.87a20.06,20.06,0,0,0,19.84-20.06h0V93.41h0a15.26,15.26,0,0,0-14.93-14.92h0l.07,0a15.28,15.28,0,0,0,14.86-14.91h0V33.61Zm-49.87,10h20v20h-20Zm0,49.85h20v20h-20Z" fill="#fff"/><path d="M435.39,0V21.49h.23a14.22,14.22,0,0,0,14-14.13h0V0Z" fill="#fff"/></g></svg>