<svg id="Layer_1" data-name="Layer 1" xmlns="http://www.w3.org/2000/svg" viewBox="0 0 282 67.19"><title>logoRede</title><g id="Ragazzo_simples_8" data-name="Ragazzo simples 8"><path d="M248,1.35c-4.06-1.59-13.72-2.52-18.3,1.58-5,4.49-7,12.32-7,24,0,6.07-.57,16.49,2.25,25.62,1.62,5.25,4.81,8.63,9.7,9.73a23.18,23.18,0,0,0,10.93,0c4.64-1.15,7.76-4.23,9.49-9.2,2.41-6.93,2.57-21.87,2.4-27.29S257.56,5.07,248,1.35Zm-3,47.83-10.07-.91a1.93,1.93,0,0,1-1.68-2l.7-29.84a1.94,1.94,0,0,1,1.71-1.87l8.7-.62a1.92,1.92,0,0,1,2.12,1.88l.66,31.37A1.92,1.92,0,0,1,245,49.18Z" fill="#ffefc6"/><path d="M108.55,28.89c-3.79,0-6.55,0-10.35,0-1.88,0-2.66.87-2.68,3s0,4.78,0,6.9c0,3.15,5.14,2.47,5.14,2.47L101,54.54a1,1,0,0,1-.94,1c-1.64,0-4.7.08-5.3.07A4.46,4.46,0,0,1,90.1,52c-1.17-5-2.49-27.32-.56-31.09,3.76-7.34,14.64-4.5,18.18-4.28,1.35.08,2-.64,2-2.17,0-2.74,0-3.4,0-6.13,0-1.43-.56-2.51-1.77-2.78C101.44,4.15,92.3,4,87.52,5.71,75.86,9.85,77.2,35.2,77.18,40.07c0,5.35.64,18.94,7.07,23.82,5.68,4.31,14.81,4,23.55,1.28A4.77,4.77,0,0,0,111,61.92c.83-2.67.3-25.62.29-29.91C111.31,29.74,110.55,28.9,108.55,28.89Z" fill="#ffefc6"/><path d="M142,5.3c-2.13-.11-12.28-.11-15.21,0-1.86.08-2.65,1.06-3,3.12-.8,5.52-7,49.2-7.9,55-.36,2.32.6,3.34,3,3.07l8.85,0c.19-1.8.58-6.53.79-8.12.13-1,.83-1.22,1.61-1.23,2.21,0,4.6,0,7,0,.78,0,1.25.2,1.39,1.12.27,1.69.89,6.58,1.17,8.25,0,0,8.23,0,11.08,0,1.25,0,1.9-.89,1.9-2.29,0-1.09-7.3-51.48-8-56.18C144.51,6.25,143.69,5.39,142,5.3Zm-3,12.28c-.06,6.67-.95,22.71-1.19,27.63-.12,2.35,0,3.13-1.68,3.13-.07,0-4.19.32-4.34.32-1.26,0-1.37-.85-1.47-2.94-.36-7.29-.71-23.07-.95-27.42-.11-2.1.54-3,2.35-3,1.61,0,5.45,0,5.45,0C138.9,15.46,139,16.18,139,17.58Z" fill="#ffefc6"/><path d="M181.67,49.27c-3.24,0-12.42.46-13.42.46.2-.45,10-19.62,14.35-29.09a10,10,0,0,0,1-4c0-2.84.3-9-.21-10.09a2.38,2.38,0,0,0-2.54-1.33c-3.24,0-16.11,0-20.5,0-2.11,0-2.85.84-2.86,3.2,0,2.54-.2,6.37.15,7.92.28,1.27,1.46,1.35,2.45,1.36,3.34,0,12.28-.65,12.28-.65S162,37,157.64,46.51a10.78,10.78,0,0,0-1,4.53c0,2.65,0,5.3,0,8,0,2,.78,2.83,2.53,2.83,8.37,0,14.33,0,22.69,0,1.73,0,2.51-.89,2.52-2.85,0-2.77.36-7.3-.18-8.46S182.65,49.27,181.67,49.27Z" fill="#ffefc6"/><path d="M63,.87C60.61.76,50.41.76,47.68.87,45.9.94,45.09,1.94,44.8,4,44,9.49,37.79,53,36.9,58.86c-.32,2.08.4,3.12,2.29,3.12,2.75,0,4.67,0,7.35,0L48,54.47c.17-1.16.74-1.53,1.58-1.61l9.77-.38a2,2,0,0,1,2.11,1.86L63,62c3.08,0,5.84,0,8.95,0,1.2,0,1.84-.91,1.84-2.26,0-.68-7.3-51.36-8-56.06C65.43,1.83,64.6,1,63,.87ZM57.89,43.6c-1.53,0-4-.29-5.56-.33-1.82,0-2.47-.42-2.36-2.42.24-4.12,1.4-19.14,1.75-26.07.09-1.86.1-2.44,1.89-2.45l2.3-.09c1.19,0,1.89.6,2.08,2.83.42,5.2,2,19.36,2.31,25.68C60.41,42.83,59.78,43.58,57.89,43.6Z" fill="#ffefc6"/><path d="M279.68,3.46c-1.53-.09-7.8-.38-9.41-.41-1.81,0-2.5.78-2.47,2.83.05,4.23.08,30.64.12,37.74,0,2,.72,2.88,2.5,3l5.2.23c2,.08,2.77-.64,3-2.92.46-4.77,2.75-31,3.35-37.42C282.16,4.36,281.57,3.57,279.68,3.46Z" fill="#ffefc6"/><path d="M277.62,52.49c-1.43-.12-8.8-.4-8.95-.39a1.85,1.85,0,0,0-1.88,1.8c-.24,3.45-.45,6.91-.55,10.37,0,1.57.53,2.34,1.85,2.45,3,.24,6,.35,9,.41a2,2,0,0,0,2-2.21c.15-3.37.34-6.75.42-10.12C279.6,53.31,278.93,52.59,277.62,52.49Z" fill="#ffefc6"/><path d="M18.78,5.36c-5.2,0-10.39-.12-15.59-.15C.6,5.19,0,5.87,0,8.76,0,26,0,63.59,0,63.9c.06,1.76.75,2.63,2.3,2.65,2.05,0,6.81,0,8.28-.06L10.82,59A1.28,1.28,0,0,1,12,57.7l7-.53a1.26,1.26,0,0,1,1.37,1.3l.2,8c1.73.06,8.08.33,10.54.33,2.15,0,2.68-1.53,1.91-3.79-.46-1.33-6.6-13.3-6.6-13.3,4.74-4,7.12-8.28,7.69-21.42C34.57,17.87,33.17,5.36,18.78,5.36Zm1.13,39.38c-.07,2.62-.89,3.32-3.26,3.6-2,.24-3.11.29-3.11.29-2.1,0-2.89-1.07-3-3.39-.27-7.75-1.29-23.31-1.43-27.08-.07-1.77.6-2.23,2.41-2.33,0,0,5.83-.68,7.36-.72,1.9,0,2.55.59,2.5,2.44C21.28,23.41,20.05,39.44,19.91,44.74Z" fill="#ffefc6"/><path d="M216.56,53.51c-5,.21-15,1.22-15,1.22-.2,0,11.13-26.83,16-37.14a10.42,10.42,0,0,0,1.18-4.35c0-3.1.32-9.72-.24-11S216.83.81,215.68.8c-3.65,0-17.84,0-22.8,0-2.38,0-3.21.92-3.22,3.48,0,2.77.34,7.77.41,8.41.13,1.28,1.63,1.46,2.75,1.47h0l13-1s-10.8,27-15.72,37.32a8.69,8.69,0,0,0-1.16,4.28c0,2.88,0,5.77,0,8.66,0,2.14.88,3.08,2.86,3.08h24.95c1.95,0,2.83-1,2.84-3.11,0-3,.28-7.51-.2-8.57C218.79,53.55,217.67,53.47,216.56,53.51Z" fill="#ffefc6"/></g></svg>