<svg xmlns="http://www.w3.org/2000/svg" width="124.595" height="124.602" viewBox="0 0 124.595 124.602"><defs><style>.a{fill:#fff;}.b{fill:#e50019;}</style></defs><g transform="translate(62.298 62.301)"><g transform="translate(-62.298 -62.301)"><path class="a" d="M124.6,62.3A62.3,62.3,0,1,1,62.3,0a62.3,62.3,0,0,1,62.3,62.3"/><path class="b" d="M96.273,94.534c-.858,4.237-3.027,8.828-8.021,11.149a58.667,58.667,0,0,0,.252-6,26.584,26.584,0,0,0,7.768-5.146m-1.412-5.7a19.118,19.118,0,0,0,1.766-2.573,29.361,29.361,0,0,1-.252,7.416,26.079,26.079,0,0,1-7.97,5.4c-.05-1.766-.151-3.632-.4-5.6,2.774-.858,6.457.5,7.062-3.027a6.256,6.256,0,0,0-.252-1.715M68.831,97.107c.05,2.169.252,4.237.4,5.5a16.546,16.546,0,0,1-1.866-2.421A19.12,19.12,0,0,1,64.7,91.76a16.294,16.294,0,0,0,4.136,5.347M66.864,83.94a5.7,5.7,0,0,0-1.412,1.967,6.727,6.727,0,0,0,2.068,5.7,4.086,4.086,0,0,0,1.513.858,26.786,26.786,0,0,0-.252,3.985,15.79,15.79,0,0,1-4.237-6,17,17,0,0,1,2.32-9.181,14.68,14.68,0,0,0-.05,2.674M77,100.537a17.4,17.4,0,0,1-7.718-3.632,27.8,27.8,0,0,1,.252-4.288c1.362.252,2.674-.151,4.338.555s2.018,1.867,3.531,2.623a26.838,26.838,0,0,0-.3,4.792m.5,6.508a14.225,14.225,0,0,1-7.768-3.884,56.7,56.7,0,0,1-.454-5.7,17.857,17.857,0,0,0,7.667,3.531h.1a57.061,57.061,0,0,0,.5,6.054M88,99.831a59.525,59.525,0,0,1-.252,6.054,16.242,16.242,0,0,1-3.531,1.059,19.974,19.974,0,0,1-6.2.2,57.109,57.109,0,0,1-.5-6.054,18.864,18.864,0,0,0,2.976.252A20.429,20.429,0,0,0,88,99.831m-10.492.757a26.283,26.283,0,0,1,.3-4.692l1.211.353c4.086.5,6.305-1.614,8.626-2.573a54.7,54.7,0,0,1,.353,5.6,19.521,19.521,0,0,1-10.492,1.261M54.556,98.217c-2.674-8.122-.5-13.822,1.816-17.2a17.793,17.793,0,0,1,13.166-7.769,7.163,7.163,0,0,0,5.095-2.169,11.653,11.653,0,0,0-.4,2.573h-.1a.441.441,0,0,0-.454.757,6.1,6.1,0,0,1,2.018,2.421,5.3,5.3,0,0,0-4.237,2.119,5.9,5.9,0,0,0-1.16,3.027,11.8,11.8,0,0,0-2.623,1.362,12.663,12.663,0,0,1,.252-3.077h.4a.4.4,0,0,0,.05-.807h-.05a5.2,5.2,0,0,0-1.362.353,4.994,4.994,0,0,0-1.211.656,4.893,4.893,0,0,0-1.614,2.119,4.691,4.691,0,0,1,1.816-1.816l.4-.151c-3.581,5.549-3.531,14.024.252,20.128a15.61,15.61,0,0,0,13.771,7.516,23.1,23.1,0,0,0,4.035-.353C98.593,105.38,97.988,90.095,97.584,86.11l.858.858a6.1,6.1,0,0,1,1.211,3.027,6.356,6.356,0,0,0-.757-3.329,6.558,6.558,0,0,0-2.472-2.522h-.1a.511.511,0,0,0-.353.958l.353.2a18.06,18.06,0,0,1-1.766,2.674,10.669,10.669,0,0,0-4.086-4.237l.4-.706a3.683,3.683,0,0,0,.252-2.825,4.49,4.49,0,0,0-2.32-2.522.454.454,0,0,0-.4.807A3.632,3.632,0,0,1,90.27,80.46a2.724,2.724,0,0,1-.2,2.119c-1.312,2.623-4.691,5.6-10.139,6.1-4.136.353-7.415-1.412-8.475-4.591a4.994,4.994,0,0,1,.757-4.49,4.439,4.439,0,0,1,3.834-1.766c2.926.353,6.154.4,7.869-3.027s1.261-7.718-.05-9.232a2.875,2.875,0,0,0-2.32-1.059,4.489,4.489,0,0,0-1.816.454,8.659,8.659,0,0,1,2.724-3.279,6.961,6.961,0,0,1,2.421.656c1.715.252,2.018-2.421,2.119-3.178a25.607,25.607,0,0,1,8.222,1.614c7.516,3.43,10.593,7.617,11.2,8.525a8.021,8.021,0,0,0-2.371,3.582.447.447,0,1,0,.858.252c.05-.2,1.412-4.692,5.6-3.935,2.522.4,4.086,2.976,4.59,7.365.605,5.246-.4,9.181-2.573,10.241-.908.454-1.261.05-1.312.05a.454.454,0,0,0-.807.4c.05.1,2.825,9.08-4.237,18.312S88.252,118.4,76.65,116.428c-10.744-1.816-19.068-8.525-22.2-18.009m28.3-25.728a1.009,1.009,0,1,1-1.009-1.009,1.009,1.009,0,0,1,1.009,1.009m-.908-2.926c-1.917-.3-3.783,1.513-4.136,4.036a5.449,5.449,0,0,0,.454,3.279l-1.412-.1a9.08,9.08,0,0,0-1.614-2.472,9.843,9.843,0,0,1,1.917-6.1c1.967-2.371,3.178-2.976,4.54-2.976a1.967,1.967,0,0,1,1.614.706,6.772,6.772,0,0,1,1.009,5.2,3.884,3.884,0,0,0-2.32-1.614m-6.356-6.76h.252a4.843,4.843,0,0,0-.151,1.715,10.241,10.241,0,0,1,2.119-1.816,2.825,2.825,0,0,1,1.564.858,14.831,14.831,0,0,0-.858,1.665.454.454,0,0,0-.05.252A12.662,12.662,0,0,0,76.3,67.7a8.071,8.071,0,0,0-.757,1.16,3.128,3.128,0,0,0-1.564-2.724,8.526,8.526,0,0,1,1.211,3.077h-.1l-.5.5a6.356,6.356,0,0,1-5.095,2.573h-.454c.454-1.766,2.32-8.122,6.507-9.433m5.4-1.211A9.433,9.433,0,0,0,79.879,62.9a3.48,3.48,0,0,0-.958-.656,7.869,7.869,0,0,1,2.018-.605m26.029,44.342a22.467,22.467,0,0,0,4.59-18.161,2.573,2.573,0,0,0,1.412-.3c2.573-1.261,3.733-5.448,3.077-11.149-.5-4.288-1.917-6.407-3.481-7.416a5.9,5.9,0,0,1,2.573.605,3.581,3.581,0,0,0,1.564.454,1.11,1.11,0,0,0,1.16-.656,1.614,1.614,0,0,0-.555-1.665,3.985,3.985,0,0,0-2.371-.908l.757-.151c2.169-.3,3.077-1.312,3.027-2.22s-.605-1.261-1.715-1.16a6.81,6.81,0,0,0-3.38.958l1.009-.908c.858-.908,1.261-1.867,1.009-2.421s-1.211-.656-2.472.2a7.769,7.769,0,0,0-2.371,2.825c1.211-4.439,2.724-10.846,2.522-13.772-.605-7.163-9.181-8.979-9.534-9.08a14.83,14.83,0,0,0-2.724-.252c-1.059,0-3.027.1-3.682.858h0A6.45,6.45,0,0,0,93.044,39.8a8.979,8.979,0,0,0-4.086,1.211,10.34,10.34,0,0,1-3.985.757,11.2,11.2,0,0,1-4.792-1.009,1.261,1.261,0,0,0-.605-.2.605.605,0,0,0-.454.2,1.11,1.11,0,0,0-.2.858,4.442,4.442,0,0,1-.2,2.724C78.264,45,76.852,45.7,76.9,46.459s.555,1.009,1.564,1.362a12.257,12.257,0,0,0,4.187.958,8.626,8.626,0,0,0,3.783-.958l.807-.4c1.917-.958,4.086-2.018,6-2.018a4.086,4.086,0,0,1,1.059.151L91.682,48.88l-.353.4c-2.421,3.128-5.246,6.457-6.709,8.172a6.507,6.507,0,0,0-4.237.4A10.02,10.02,0,0,0,76.3,61.946l-.908.2c-5.044,1.564-6.911,9.131-7.213,10.392a19.065,19.065,0,0,0-12.46,8.021c-2.926,4.288-4.742,9.585-1.967,18.009,3.228,9.787,11.8,16.8,22.9,18.615a34.854,34.854,0,0,0,5.8.5,30.662,30.662,0,0,0,24.616-11.7" transform="translate(-25.954 -19.722)"/><path class="b" d="M131.014,100.766a.464.464,0,0,0-.353.858,4.284,4.284,0,0,1,2.32,3.935,11.854,11.854,0,0,0-5.2-1.261A13.115,13.115,0,0,0,123.9,105a.455.455,0,0,0,.3.858,14.023,14.023,0,0,1,3.531-.656h.05a10.744,10.744,0,0,1,5.4,1.463l.252.1h.2a.5.5,0,0,0,.252-.353c0-.05.454-4.187-2.875-5.6" transform="translate(-61.251 -49.916)"/><path class="b" d="M163.8,117.446a10.8,10.8,0,0,1,.5-1.412,7.821,7.821,0,0,1,.656-1.261l.151-.2.151.4.252.908c.05.3.151.605.2.908l.151.958a2.321,2.321,0,0,0,.3-1.009,3.027,3.027,0,0,0-.05-1.059,3.077,3.077,0,0,0-.4-.958l-.353-.454.1-.1.4-.555a7.666,7.666,0,0,0,.757-1.312h-.05a2.825,2.825,0,0,0-1.412.706,2.371,2.371,0,0,0-.5.656l-.353.757-.252.757-.151.757a7.869,7.869,0,0,0-.1,1.513h0Z" transform="translate(-81.17 -55.649)"/><path class="b" d="M124.28,75.344a54.735,54.735,0,0,0-.05-8.828,53.373,53.373,0,1,0-60.835,57.509v-1.059a52.387,52.387,0,1,1,59.876-47.873Z" transform="translate(-8.714 -8.755)"/><path class="b" d="M124.112,67.162l-.706-.757.706-.757a.706.706,0,0,0-.05-1.009l-.757-.706.706-.757a.706.706,0,0,0-.05-1.009l-.4-.353-.4-.353.353-.4.3-.454a.706.706,0,0,0-.1-1.009l-.807-.656.605-.807a.706.706,0,0,0-.151-1.009l-.858-.605.605-.858a.706.706,0,0,0-.2-1.009l-.858-.555.555-.908a.741.741,0,0,0-.2-1.009l-.454-.3-.454-.3.252-.5.252-.454a.706.706,0,0,0-.3-.958l-.908-.5.454-.908a.694.694,0,0,0-.3-.958l-.958-.454.454-.958a.706.706,0,0,0-.353-.958l-.958-.4.4-.958a.706.706,0,0,0-.4-.908l-.5-.2-.5-.2.2-.555.151-.454a.706.706,0,0,0-.454-.908L117,39.972l.3-1.009a.757.757,0,0,0-.5-.908l-1.009-.3.252-1.009a.71.71,0,0,0-.555-.858l-1.009-.252.2-1.009a.706.706,0,0,0-.555-.858l-.5-.1-.555-.1.1-.555v-.5a.706.706,0,0,0-.605-.807l-1.059-.151c.05-.3.1-.656.151-1.009a.706.706,0,0,0-.656-.807l-1.059-.1a6.771,6.771,0,0,0,.05-1.059.687.687,0,0,0-.656-.757h-1.059a7.1,7.1,0,0,1,.05-1.059.706.706,0,0,0-.2-.5.757.757,0,0,0-.5-.2h-1.059v-1.11a.706.706,0,0,0-.706-.706h-1.059c0-.353-.05-.706-.05-1.059a.706.706,0,0,0-.757-.656h-1.059l-.1-1.059a.706.706,0,0,0-.807-.656l-1.009.1-.151-1.009a.706.706,0,0,0-.757-.605h-1.11l-.1-.605-.1-.454a.706.706,0,0,0-.858-.555l-1.009.2-.252-1.009a.706.706,0,0,0-.757-.555h-.1l-1.009.252-.3-1.009a.706.706,0,0,0-.757-.5h-.05l-1.009.3-.3-1.009a.706.706,0,0,0-.757-.5h-.151l-.5.151-.5.151-.2-.555-.2-.454a.706.706,0,0,0-.706-.454h-.2l-.958.4-.4-.958a.706.706,0,0,0-.706-.4h-.2l-.958.4-.454-.958a.757.757,0,0,0-.706-.4h-.252l-.958.454-.5-.908a.706.706,0,0,0-.706-.353l-.252.1-.4.2-.555.3-.3-.5-.252-.4a.706.706,0,0,0-.656-.353l-.3.1-.908.555L78.158,9.1a.706.706,0,0,0-.656-.3l-.353.1-.858.605-.656-.454a.757.757,0,0,0-.656-.3l-.353.151-.858.605L73.113,8.7a.706.706,0,0,0-.605-.252l-.4.151-.454.353-.4.3-.353-.4-.353-.4a.706.706,0,0,0-1.009-.05l-.757.656-.706-.757a.706.706,0,0,0-1.009,0L66.3,9l-.757-.706a.757.757,0,0,0-.555-.2.706.706,0,0,0-.454.2l-.706.757-.757-.706a.706.706,0,0,0-1.009.05l-.353.4-.353.4-.454-.353-.4-.3a.74.74,0,0,0-1.009.1l-.656.807-.807-.605A.706.706,0,0,0,57.022,9l-.656.858-.858-.605a.757.757,0,0,0-.454-.1.706.706,0,0,0-.555.3l-.555.858-.908-.555a.656.656,0,0,0-.454-.1.706.706,0,0,0-.555.353l-.3.454-.3.454-.5-.252-.454-.252-.4-.1a.757.757,0,0,0-.555.353l-.5.908-.908-.454h-.3a.706.706,0,0,0-.555.4l-.454.958-1.009-.5H45.42a.706.706,0,0,0-.605.4l-.4.958-.958-.4H43.1a.757.757,0,0,0-.605.454l-.2.454-.2.555-.555-.2-.454-.151h-.3a.706.706,0,0,0-.605.5l-.353,1.009-1.009-.3H38.56a.706.706,0,0,0-.605.5l-.252.858-1.009-.252h-.252a.706.706,0,0,0-.656.555l-.252,1.009-1.009-.2h-.2a.706.706,0,0,0-.656.555l-.1.5-.1.555h-.5l-.5-.1h-.2a.706.706,0,0,0-.656.605l-.151,1.009-1.009-.1h-.151a.706.706,0,0,0-.656.555l-.1,1.059H28.471a.706.706,0,0,0-.757.656c0,.3-.05.656-.05,1.059H26.6a.706.706,0,0,0-.757.706c0,.2,0,.353,0,.555V25.9H24.789a.706.706,0,0,0-.706.605,7.1,7.1,0,0,0,.05,1.059H23.073a.706.706,0,0,0-.656.757v1.059l-1.059.1a.706.706,0,0,0-.656.807l.1,1.059-1.009.151a.706.706,0,0,0-.605.807v1.059l-.5.1-.5.1a.757.757,0,0,0-.454.3.706.706,0,0,0-.1.555l.2,1.009-1.009.252a.71.71,0,0,0-.555.858l.252,1.009-1.009.3a.706.706,0,0,0-.5.858l.3,1.009-1.009.3a.736.736,0,0,0-.454.908l.151.5.151.5-.5.2-.5.2a.706.706,0,0,0-.4.908l.4.958-.958.4a.706.706,0,0,0-.353.958l.4.958-.958.454a.706.706,0,0,0-.3.958l.454.958-.908.5a.706.706,0,0,0-.3.958l.252.454.252.5-.555.353-.353.252a.741.741,0,0,0-.2,1.009l.555.908L9.3,54.4a.706.706,0,0,0-.2,1.009l.605.858-.858.605A.706.706,0,0,0,8.7,57.88l.605.858-.807.656a.706.706,0,0,0-.1,1.009l.353.454.3.4-.454.4-.353.3a.706.706,0,0,0-.05,1.009l.706.757-.757.706a.706.706,0,0,0-.05,1.009L8.8,66.2l-.706.757a.706.706,0,0,0,0,1.009l.757.706-.706.757a.706.706,0,0,0,.05,1.009l.353.3.454.4-.353.454-.3.4a.706.706,0,0,0,.1,1.009l.807.656-.605.807a.63.63,0,0,0,.151.958l.858.605L9.05,76.9a.706.706,0,0,0,.2,1.009l.858.605-.555.858a.741.741,0,0,0,.2,1.009l.454.3.454.3-.252.5-.252.454a.706.706,0,0,0,.252.958l.908.5-.454.908a.706.706,0,0,0,.3.958l.958.454-.4.958a.706.706,0,0,0,.353.958l.958.4-.4.958a.706.706,0,0,0,0,.555.656.656,0,0,0,.4.353l.454.2.5.2-.2.555-.151.454a.706.706,0,0,0,.454.908l1.009.353L14.8,93.6a.706.706,0,0,0,.5.858l1.009.3-.252,1.009a.706.706,0,0,0,.5.858l1.009.252-.2,1.009a.706.706,0,0,0,.555.858l.5.1.555.1-.1.555v.5a.8.8,0,0,0,.605.858l1.009.151a6.3,6.3,0,0,0-.1,1.059.706.706,0,0,0,.656.807l1.059.1v1.059a.706.706,0,0,0,.656.757H23.83c0,.353-.05.706-.05,1.059a.706.706,0,0,0,.2.5.656.656,0,0,0,.5.2h1.059v1.059a.706.706,0,0,0,.706.706h1.059c0,.353.05.706.05,1.059a.706.706,0,0,0,.757.656h1.059c.05.353.05.706.1,1.059a.706.706,0,0,0,.807.656l1.059-.1.151,1.009a.706.706,0,0,0,.757.605h.5l.605-.1.1.5.1.555a.706.706,0,0,0,.757.555h.05l1.009-.2.252,1.009a.706.706,0,0,0,.757.555h.1l1.009-.252.3,1.009a.706.706,0,0,0,.757.5h.353l1.009-.3.3,1.009a.706.706,0,0,0,.757.5h.151l.5-.151.5-.151.2.555.2.454a.706.706,0,0,0,.908.4l.958-.4.4.958a.706.706,0,0,0,.706.4h.2l.958-.4.454.958a.706.706,0,0,0,.706.4h.252l.958-.454.5.908a.706.706,0,0,0,.706.353l.252-.1.4-.2.555-.3.3.454.3.454a.706.706,0,0,0,.656.353l.3-.1.908-.555.555.858a.706.706,0,0,0,.656.3l.353-.1.858-.605.605.858a.706.706,0,0,0,.656.3l.353-.151,1.11-.807a.5.5,0,0,0,.2-.4v-1.16a.5.5,0,0,0-.4-.5A54.733,54.733,0,0,1,11.471,71.148C8.949,41.384,31.851,14.093,61.562,11.571s56.85,19.775,59.422,50.043a55.543,55.543,0,0,1,0,9.383.5.5,0,0,0,.4.5l1.059.252a.5.5,0,0,0,.4-.1l.706-.605.4-.353a.676.676,0,0,0,.05-1.009l-.706-.807.757-.706a.706.706,0,0,0,0-1.009" transform="translate(-3.905 -4.004)"/><path class="b" d="M198.216,152h0l-.807-.5-1.009,1.614,2.371,1.513h0a1.867,1.867,0,0,0-.605-2.522" transform="translate(-97.329 -75.074)"/><path class="b" d="M217.729,137.081h0l-4.994-1.463a2.623,2.623,0,0,0-3.279,1.766v.2l-1.059,3.582-2.522-.757.757-2.522,1.261.353,1.11-3.783-2.522-.757h0a2.623,2.623,0,0,0-3.228,1.766h0l-1.463,4.893h0a2.623,2.623,0,0,0,1.766,3.279h0L208.5,145.1h.05a2.623,2.623,0,0,0,3.228-1.766h0l1.11-3.783,2.522.757-.757,2.522-1.261-.353-1.11,3.783,2.522.757h0a2.623,2.623,0,0,0,2.774-.908,57.61,57.61,0,0,0,1.866-7.567,2.623,2.623,0,0,0-1.715-1.614" transform="translate(-99.943 -66.204)"/><path class="b" d="M201.015,171.127l-2.219-1.362,1.412-2.22,2.22,1.412Zm-5.549-3.481-2.22-1.413,1.362-2.22,2.22,1.412Zm10.089-1.413h0l-3.329-2.068h0a1.967,1.967,0,0,0-2.674.605h0a2.018,2.018,0,0,0-.605-2.674h0l-3.329-2.068a2.623,2.623,0,0,0-3.581.858h0l-4.136,6.608,14.023,8.778a58.371,58.371,0,0,0,4.893-7.668,2.623,2.623,0,0,0-1.211-2.371" transform="translate(-93.117 -79.113)"/><path class="b" d="M171.293,201.128l-1.463-2.169L172,197.5l1.463,2.169Zm-3.632-5.4-1.463-2.169,2.169-1.463,1.463,2.169Zm9.786,2.825-2.22-3.229a2.018,2.018,0,0,0-2.724-.5h0a2.018,2.018,0,0,0,.5-2.724l-2.219-3.229a2.623,2.623,0,0,0-3.632-.706h-.05L160.7,192.5l9.332,13.772a58.514,58.514,0,0,0,7.466-4.944,2.623,2.623,0,0,0-.1-2.775Z" transform="translate(-79.637 -93.022)"/><path class="b" d="M122.907,204.852l.252,6.558-2.623.1-.252-6.558-3.884.151.656,16.7h3.935l-.252-6.508,2.623-.1.252,6.457,1.312-.1,2.573-.252-.656-16.7Z" transform="translate(-57.684 -101.387)"/><path class="b" d="M180,180.323l12.006,11.754q1.412-1.362,2.724-2.825L182.522,177.7Z" transform="translate(-89.202 -88.057)"/><path class="b" d="M145.577,206.981l-.807-2.472,2.472-.807.807,2.472Zm4.994-5.751a2.623,2.623,0,0,0-3.329-1.665h-.05l-.3.1-3.43,1.11-1.11.353h-.05a2.623,2.623,0,0,0-1.715,3.279h0l3.935,13.419c1.312-.3,2.573-.605,3.834-1.009l-1.564-6.1h0l2.472-.807h.05l2.32,6,3.682-1.463-4.792-13.217Z" transform="translate(-69.609 -98.824)"/><path class="b" d="M135.63,85.263c-3.581-2.976-6.759-1.059-6.759-1.059s-.958,3.481,1.009,3.834c5.65-.757,8.121,5.1,8.121,5.1,1.412-3.279-1.412-6.911-2.371-7.92" transform="translate(-63.748 -41.425)"/></g></g></svg>