<svg xmlns="http://www.w3.org/2000/svg" width="28.112" height="27.69" viewBox="0 0 28.112 27.69"><defs><style>.a{fill:#fff;}</style></defs><g transform="translate(-315 306.796)"><path class="a" d="M315-293.615c.07-.5.125-1.012.214-1.514a13.239,13.239,0,0,1,3.945-7.368,13.951,13.951,0,0,1,7.764-3.839,14.466,14.466,0,0,1,10.462,2.3l.229.152c.069-.062.143-.126.214-.193q1.2-1.132,2.393-2.263a2.258,2.258,0,0,1,.388-.3.977.977,0,0,1,1.511.781c.007.073,0,.146,0,.219q0,4.323,0,8.646c0,.553-.231.789-.779.789q-4.515,0-9.031,0a1.528,1.528,0,0,1-.484-.075.913.913,0,0,1-.515-1.463,2.509,2.509,0,0,1,.37-.438c.819-.8,1.644-1.587,2.508-2.418a9.55,9.55,0,0,0-8.775-.546c-3.833,1.686-5.69,4.725-5.684,8.959H315Z"/><path class="a" d="M360.067-67.3c-.069.5-.122,1-.211,1.489a13.322,13.322,0,0,1-5.137,8.411,14.183,14.183,0,0,1-9.558,2.982,14.287,14.287,0,0,1-7.48-2.467l-.229-.152c-.07.063-.144.126-.214.193q-1.2,1.132-2.393,2.263a2.354,2.354,0,0,1-.34.276.945.945,0,0,1-1.012.082,1.006,1.006,0,0,1-.547-.92c-.009-.485,0-.97,0-1.455q0-3.664,0-7.328c0-.556.227-.787.778-.787q4.515,0,9.03,0a1.588,1.588,0,0,1,.406.048.931.931,0,0,1,.579,1.512,2.38,2.38,0,0,1-.336.4c-.827.8-1.658,1.6-2.528,2.437a9.555,9.555,0,0,0,8.875.5c3.772-1.7,5.6-4.728,5.582-8.915h4.737Z" transform="translate(-16.955 -225)"/></g></svg>